<svg height="612.14294" width="1000" xmlns="http://www.w3.org/2000/svg"><path d="m0 0c-.128 1.104-.357 2.085-.583 2.983-.061.377-.124.68-.171.897-.145.917-.291 1.81-.507 2.753-.072.096-.105.123-.29.071-.224-.054-.164-.054-.345-.099l-.138-.045c-.239-.106-.224-.076-.45-.152-.211-.074-.492.007-.492-.332-.024-1.569.025-3.066.096-4.61-.026-.202-.53-.074-.821-.121-.168-.362.101-1.047-.315-.966-.409.022-.958.055-1.425.1-.408.015-.949.095-1.329.105-.579.048-.89.076-1.469.157-1.594.193-3.163.459-4.636.845-.192.023-.363.144-.41.338-.29 1.932.241 3.766.289 5.674.049.893.266 1.738.29 2.608.048.386.127.669.192 1.183.055.346.116.743.116.815.076.453.076.543.136.981 0 0 .06.406.111.836.095.579.13.749.22 1.442.091.362.136.693.197 1.072.075.347.166.829.287 1.297.047.217.134.589.188.922.068.239.113.406.171.7.217.747.334 1.245.562 2.091.166.603.452 1.602.452 1.723.023.097.096.314.071.435-.312-.05-.645-.045-1.038-.136-.272-.046-.314-.073-.482-.12-.211-.032.271-1.118.048-1.17-.749-.168-1.556-.174-2.293-.314-.822-.12-1.74-.265-2.537-.408-.892-.171-1.753-.372-2.679-.654-.853-.247-1.866-.518-2.052-.7-.085-.15-.114-1.236-.025-1.883.032-.184.409.042.773.145.725.218 2.246.577 2.512.652l.655.197c.7.144 1.191.407 1.932.436.27.061.301-.512.478-.994.17-.388.185-.665.396-1.133.166-.528.256-.784.423-1.283.045-.227.058-.252.226-.845.165-.614.165-.521.356-1.327 0 0 .123-.478.187-.726.092-.225.105-.421.248-.772.115-.54.185-.534.205-1.158.009-.133-.615-.29-.833-.387.048-.172.078-.202.139-.353.12-.301.286-.573.15-.661-1.229-.41-2.534-.724-3.741-1.159-.664-.218-1.148-.414-1.706-.64-.555-.168-1.464-.588-1.529-.737-.049-.82.035-1.376.11-2.219.045-.636.105-.801.155-1.498.097-.725.194-1.593.337-2.343.072-.724.191-1.691.263-2.438l-.165-.049-1.328-.314-.077-.015.173-1.048c-.99-.216-1.896-.515-2.933-.612-.654-.121-1.133-.121-1.823-.183-1.594-.144-2.933-.311-4.577-.239l-.498-.015c-.965.096-1.711-.109-2.603.036-.247.024-.308.538-.429.899-.145.773-.29 1.191-.483 1.962l-.303 1.178c-.385 1.666-.496 2.02-.829 3.925-.136.572-.318 1.583-.419 2.226-.11.669-.139.851-.267 1.52.002-.005-.174 1.171-.249 1.685-.166.965-.137.739-.272 1.704-.031.364-.106.816-.152 1.102-.135 1.648-.18 1.789-.171 2.149-.041.507-.1 1.065-.122 1.352-.121 1.183-.095 2.631-.215 3.863.023.386-.026.894-.026 1.279 0 .774-.021 1.354-.069 2.102-.015.83-.03 1.025-.03 1.554.015.362 0 .724.027 1.053.018.457.033 1.437.063 1.784.049.363.091.876.287.996.211.196.447.166.616.239.17.048.362.023.483.169.048.24.048.341.088.644l.056.225c.105.137.17.192.266.289l.444.31c.24.141.321.162.619.319.676.289 1.351.579 2.052.844.87.387 1.352.507 2.269.846.436.096 1.083.371 1.517.467.893.289 1.213.39 2.154.582.383.101 1.154.291 1.508.363.122.048 2.162.422 2.548.494.23.049.35.065.667.124.393.06.589.092 1.042.166.815.167 1.889.314 2.831.434l.413.064c.739.092 1.005.163 1.825.212 1.281.144 2.855.303 4.158.232.121-.025.195-.143.218-.241.097-.411.105-.715.198-1.44.018-.272.035-.667.059-.739.17-1.45.115-1.261.331-2.686.06-.633.182-1.238.182-1.449.042-.707.103-.83.122-1.358.047-.363.089-.801.135-1.328.024-.531.109-.851.109-1.358.023-.435.009-.848.056-1.283.061-.03.137.257.212.513.091.256.127.476.152.572.072.315.134.515.134.515.05.144.077.242.152.467.096.29-.006.423.355.567l.749.048c.145.388.134.879.495 1.12.182.061 3.706.378 5.446.209 1.714-.144 2.805-.151 4.424-.466l.669-.09c.242-.024.422-.071.689-.121.218-.168.302-.41.446-.627.157-.277.157-.358.29-.628.459.121.772.23 1.304.362.121.073.072.146.121.241.027.2.097.436.144.556.094.112.215.173.58.29.6.124 1.134.265 1.689.339.653.071 1.266.221 2.006.289 1.182.048 2.292.13 3.65.009.121.025.312-.011.409-.06.15-.195.335-.432.456-.65.233-.424.406-.686.82-1.328.098-.179.203-.345.488-.739.287-.422.348-.482.815-1.207.121-.227.271-.393.314-.323.46 1.207.75 2.269 1.136 3.476.09.377.332.243.498.272.226 0 .377.015.497.015.333 0 .529-.105.599.1.144.146.144.435.314.628.099.043.279.021.687.027.453 0 .61.012 1.132.061 0 0 .197-.016.45.009.651-.039.756-.039 1.255-.054.271-.016.642-.052.981-.016.653-.025 1.102-.06 2.085-.172 0 0 .482-.024.676-.073.532-.096.967-.096 1.472-.218l.158-.216c.181-.574.316-1.599.399-1.931.096-.652.265-1.28.386-1.908.226.052.377.082.754.128.074.023.409.074.693.12.726.12.779.104 1.524.211l.47.046c.362.047.357.02.694.045.242-.016.287-.016.549.005.483.025 1.015.025 1.522 0 .584-.036.75-.036 1.302-.072.323-.024.383-.055.7-.024 0 .701.869.459 1.282.773-.05.289-.099.53.022.797.339.119.523.195.965.336 1.065.243 1.599.418 2.636.659l.68.152c1.135.216 1.768.234 2.926.452.243 0 .58.085.982.105.363.015.963.033 1.059.058.285.003.359.017.653 0 .176-.012.312-.012.387-.012.271-.031.41.036.579-.23.121-.941.047-1.979.168-2.825.049-2.558.242-4.902.385-7.629.088-.966.147-1.69.244-2.511-.003-.325.026-.461.042-.735.022-.24.074-.377.105-.754.016-.406.057-.464.166-.437.135 0 .38-.009.572.016.454.015.665.045 1.193.105l.543.045c.132 0 .257-.016.741.03.386.048.503-.018.889.031.302-.016.332-.016.664 0 .498.015.855.081 1.266.008.215-.048.168-.314.168-.482-.05-1.353.023-2.512 0-3.743.061-1.714.016-5.289-.024-5.456-.036-.257-.579-.257-1.134-.314-.079-.063.071-.628.047-.918l-.021-.082c-.558-.136-.89-.15-1.343-.211-.362-.075-.407-.075-.761-.118-1.125-.154-2.055-.228-3.116-.35-.424-.06-.664-.06-1.134-.132-.554-.025-1.954-.146-1.954-.146-1.819-.159-3.11-.137-4.775-.354-.377-.045-.635-.093-.947-.104-.508-.072-1.483-.184-1.618-.072-.169.29-.245.631-.317.944-.172.627-.227.936-.319 1.344-.045.348-.058.573-.15.513-.916-.097-1.587-.155-2.503-.226-.229-.046-.379-.06-.651-.076 0 0-.72-.061-.914-.012-.46-.024-.892-.024-1.279 0-.417.028-.603.023-.918.047-.41.025-.752.07-1.25.116-.386.048-.561.077-.947.102-.229.063-.319.079-.507.025-.651-.122-1.401-.339-2.124-.508-.375-.086-.512-.103-.768-.147-.361-.062-.603-.122-1.041-.195-.675-.098-.786-.084-1.387-.228-.182-.015-.227-.031-.451-.057-.99-.194-1.956-.169-2.97-.338-.047 0-.265-.049-.362.047-.072.073-.047.145-.072.218-.484 2.488-.484 5.432-.917 7.679-.339-.507-.616-.97-.948-1.603-.258-.423-.308-.74-.646-.884-.184.009-.335.16-.456.28-.212-.408-.332-1.479-.655-1.198-.507.604-.965 1.183-1.4 1.787l-.329.557c-.091-.844-.12-1.463-.179-2.49-.078-.859-.078-2.399-.258-2.518-.152-.137-.539-.064-.875-.089-.073-.313-.073-.652-.098-.917-.023-.234-.068-.323-.193-.314-.676-.025-1.352.048-1.979.121-.704.052-.991.065-1.925.125-1.661.167-2.64.188-4.113.333-.506.072-.702-.242-1.206-.483-.506-.361-.809-.468-1.322-.739-1.038-.386-1.672-.854-2.735-1.216-.177-.067-.346-.17-.465-.193z" fill="#231f20" transform="matrix(8.5704182 0 0 -8.5704182 319.25099 343.05619)"/><path d="m0 0c.047-.144.045-.229.072-.506.033-.266.049-.388.078-.839.121-1.28.261-2.107.429-3.386 0 0 .069-.417.114-.87.033-.392.104-1.062.127-1.135.056-.405.071-.676.101-.963 0 0 .045-.543.069-.823.02-.474.036-.553.081-.943 0-.27.032-.391.032-.768.029-.272.074-.575-.041-.583-.806-.142-1.378-.187-2.132-.292-.75-.097-1.013-.137-1.924-.216-.582-.086-.673-.116-1.186-.161-.857-.149-.963-.176-1.615-.345-.99-.193-1.509-.336-2.732-.668-.256-.106-.352-.103-.497-.15-.289-.122-.423-.122-.74-.243l-.256-.15c-.222-.186-.106-1.087-.169-1.783-.012-.36-.012-.435-.024-.725.012-.313-.014-.482.012-.675-.026-.363-.09-1.238.278-1.064.579.05.929.218 1.569.388.604.12 1.135.289 1.74.385.868.266 1.712.506 2.558.724.103.02.135-.102.161-.268.05-.193.122-.347.199-.649.073-.257.163-.54.235-.684.507-1.353.73-2.092 1.091-3.647.197-.618.258-.77.437-1.479.077-.24.244-.693.147-.71-.508-.168-1.015-.361-1.546-.482-1.063-.361-2.294-.725-3.38-1.109-.846-.267-1.52-.606-2.343-.87-.241-.122-.289-.386-.314-.653-.024-3.138.486-6.224.874-9.244l-.052-.002c-1.522-.218-2.662-.631-4.159-.752-.198-.019-.624-.053-.911-.095-.749-.071-1.217-.101-1.865-.161-1.039 0-1.709-.054-2.675-.054-.345-.038-.531 0-.796-.025-.362.048-.773.048-1.207.072-.147.337-.242.851-.378 1.212-.137.652-.242.968-.377 1.48-.157.848-.272 1.162-.403 1.872-.111.393-.14.543-.218.845-.097.506-.17 1.087-.339 1.592-.021.218-.052.339-.097.581-.072.313-.049.459-.145.748l-.081.352c-.387 1.305-.522 2.546-.643 3.825-.218.918-.218 1.955-.41 2.849-.072.507-.094 1.1-.169 1.715-.031.365-.076.5-.076.757-.047.193-.066.743-.09.936-.073.774-.052.672-.101 1.372-.005.272-.05.408-.05.605-.048.797-.046.799-.075 1.478 0 .097-.061 1.103-.061 1.464-.049 1.19-.045 1.116-.016 2.369-.011.374.014.946.016 1.389.014.345.015.543.029 1.071.016.226.016.377.014.63l.032.849c.024.386.015.634.087 1.205-.023.361.242.579.509.747 1.013.579 1.804.855 3.011 1.428.996.317 1.554.603 2.491.86.835.305 1.447.469 2.412.695.907.272 1.742.422 2.563.59.306.059.517.104.96.162 1.087.218 1.369.258 2.454.5.467.029.876.151 1.44.232 1.497.217 2.897.411 4.346.58.658.093.96.093 1.592.17.654 0 1.435.074 1.861.023.072-.17.056-.234.072-.58" fill="#0499db" transform="matrix(8.5704182 0 0 -8.5704182 221.52766 43.28353)"/><path d="m0 0c.047-.144.045-.229.072-.506.033-.266.049-.388.078-.839.121-1.28.261-2.107.429-3.386 0 0 .069-.417.114-.87.033-.392.104-1.062.127-1.135.056-.405.071-.676.101-.963 0 0 .045-.543.069-.823.02-.474.036-.553.081-.943 0-.27.032-.391.032-.768.029-.272.074-.575-.041-.583-.806-.142-1.378-.187-2.132-.292-.75-.097-1.013-.137-1.924-.216-.582-.086-.673-.116-1.186-.161-.857-.149-.963-.176-1.615-.345-.99-.193-1.509-.336-2.732-.668-.256-.106-.352-.103-.497-.15-.289-.122-.423-.122-.74-.243l-.256-.15c-.222-.186-.106-1.087-.169-1.783-.012-.36-.012-.435-.024-.725.012-.313-.014-.482.012-.675-.026-.363-.09-1.238.278-1.064.579.05.929.218 1.569.388.604.12 1.135.289 1.74.385.868.266 1.712.506 2.558.724.103.02.135-.102.161-.268.05-.193.122-.347.199-.649.073-.257.163-.54.235-.684.507-1.353.73-2.092 1.091-3.647.197-.618.258-.77.437-1.479.077-.24.244-.693.147-.71-.508-.168-1.015-.361-1.546-.482-1.063-.361-2.294-.725-3.38-1.109-.846-.267-1.52-.606-2.343-.87-.241-.122-.289-.386-.314-.653-.024-3.138.486-6.224.874-9.244l-.052-.002c-1.522-.218-2.662-.631-4.159-.752-.198-.019-.624-.053-.911-.095-.749-.071-1.217-.101-1.865-.161-1.039 0-1.709-.054-2.675-.054-.345-.038-.531 0-.796-.025-.362.048-.773.048-1.207.072-.147.337-.242.851-.378 1.212-.137.652-.242.968-.377 1.48-.157.848-.272 1.162-.403 1.872-.111.393-.14.543-.218.845-.097.506-.17 1.087-.339 1.592-.021.218-.052.339-.097.581-.072.313-.049.459-.145.748l-.081.352c-.387 1.305-.522 2.546-.643 3.825-.218.918-.218 1.955-.41 2.849-.072.507-.094 1.1-.169 1.715-.031.365-.076.5-.076.757-.047.193-.066.743-.09.936-.073.774-.052.672-.101 1.372-.005.272-.05.408-.05.605-.048.797-.046.799-.075 1.478 0 .097-.061 1.103-.061 1.464-.049 1.19-.045 1.116-.016 2.369-.011.374.014.946.016 1.389.014.345.015.543.029 1.071.016.226.016.377.014.63l.032.849c.024.386.015.634.087 1.205-.023.361.242.579.509.747 1.013.579 1.804.855 3.011 1.428.996.317 1.554.603 2.491.86.835.305 1.447.469 2.412.695.907.272 1.742.422 2.563.59.306.059.517.104.96.162 1.087.218 1.369.258 2.454.5.467.029.876.151 1.44.232 1.497.217 2.897.411 4.346.58.658.093.96.093 1.592.17.654 0 1.435.074 1.861.023.072-.17.056-.234.072-.58z" fill="none" stroke="#231f20" stroke-width=".329" transform="matrix(8.5704182 0 0 -8.5704182 221.52766 43.28353)"/><path d="m0 0c.144-.1.289-.122.436-.171.342-.133.525-.238.793-.314.667-.317 1.15-.362 2.055-.723.543-.197.821-.314 1.254-.46.943-.217 1.794-.492 2.681-.748.365-.211 0-.58-.073-.846-.289-.676-.579-1.302-.893-1.955-.298-.473-.374-.7-.7-1.158-.276-.418-.53-.653-.725-.968-.94-1.303-1.825-2.226-2.767-3.433l-.225-.261c-.942-.941-1.836-1.955-2.898-2.728-.146-.821-.105-1.131-.15-1.99 0-.332-.029-.885-.016-1.118 0-1.025.03-1.176.045-1.796.016-.301.03-.467.049-.72.072-.698.028-.773.102-1.574.06-.891.06-1.281.15-2.128.073-.737.121-1.07.197-1.809.014-.181.075-.499.081-.67-.006-.463-.383-.418-.729-.448-.243-.015-.409-.044-.479-.109-.096-.337.194-.748-.119-.989-.41-.145-.61-.139-1.303-.266-.339-.025-.797-.072-1.112-.121-.534-.024-.626-.055-1.077-.055l-.575-.028c-.507-.05-.588-.06-1.148-.11-.344-.012-.405-.012-.773-.024-.242-.023-.764-.004-1.082.012-.422.017-.422-.03-.875-.012-.77 0-1.511-.055-2.308.041-.255-.012-.406-.029-.613-.017-.565.005-.426 1.059-.429 1.573-.055 1.177-.042 1.276-.076 2.263-.013.574.031.86 0 1.163 0 0-.013.98-.045 1.418-.015.512 0 1.66 0 2.233 0 .406.016 1.071.016 1.071-.031 1.102.052 1.242.003 2.206-.845.628-1.691 1.547-2.317 2.27-.13.157-.162.218-.267.363-1.23 1.448-2.211 2.723-2.911 4.533-.166.347-.256.558-.395.874-.164.423-.148.377-.243.654-.071.177-.102.207-.168.386-.114.245-.159.305-.206.53-.144.434-.18.604-.157 1.014.145.29.556.17.797.363.024.58-.484 1.327.313 1.689.869.338 1.402.635 2.247.948l.739.288c1.961.754 3.268 1.058 5.176 1.565.554.146 1.135.387 1.715.313.121-.046.168-.239.192-.313.434-1.545.918-3.187 1.931-4.442.085-.097.04-.142.159-.142.196.241.494.48.638.794.087.127.27.353.391.549.797.918 1.131 1.865 1.831 2.976.188.328.219.48.508.772.361.025.675-.289 1.014-.337.144.24.289.458.41.699.265.217.537.011.797-.096.418-.225.66-.318 1.134-.481" fill="#231f20" transform="matrix(8.5704182 0 0 -8.5704182 936.26193 85.06432)"/><path d="m0 0c.433-.168.59-.233 1.025-.354.256-.105.664-.247.787-.271.632-.288 1.469-.576 2.534-.922 1.135-.408 2.341-.723 3.476-1.133-.193-.435-.314-.821-.532-1.232-.529-1.111-1.134-2.27-1.955-3.163-.085-.099-.085-.13-.192-.241-.315-.434-.629-.917-.966-1.281-1.015-1.229-1.802-2.226-3.107-3.361-.145-.169-.299-.322-.466-.468l-.171-.154c-.193-.145-.162-.207-.478-.389-.226-.166-.271-.181-.453-.271-.122-.133-.106-.439-.167-1.66l-.045-1.253c-.045-1.327 0-1.901.057-3.163.049-.564.022-.588.093-1.289.014-.422.167-1.991.221-2.525.052-.538.068-.674.097-1.141 0 0 .045-.483.096-.936.025-.182-.025-.146-.072-.192-.339-.074-.651-.147-.94-.218-.216-.059-.802-.149-1.06-.164-.878-.106-1.057-.106-2.067-.166l-.303-.009c-.411-.024-.584-.032-1.026-.051-.296-.041-.408 0-.664-.015-1.449-.097-2.49-.136-3.94.045-.179-.015-.285.03-.309.118-.113.109-.279 1.874-.279 3.126-.029.243-.02.981-.045 1.102 0 .272-.015.83-.031 1.236.031 1.028 0 1.133.04 2.239 0 .554 0 1.013.05 1.593-.05.627.097 1.159.022 1.811-.435.434-1.012.845-1.472 1.375-.299.258-.42.363-.604.556-.725.797-1.351 1.546-1.883 2.39-.135.178-.528.721-.709 1.024-.265.507-.324.476-.588.935-.099.185-.227.423-.287.544 0 0-.183.392-.289.617-.168.388-.223.514-.421.937-.137.393-.182.559-.288.859-.215.749-.363 1.168-.388 1.99-.033.109.252.275.599.365.581.193.892.361 1.623.601.773.362 1.487.622 2.362.862.603.227 2.053.665 2.475.815.784.197 1.513.472 2.308.543.145-.217.171-.602.292-.893.218-.797.554-1.618.915-2.293.34-.822.822-1.449 1.476-2.149.239-.218.504-.532.892-.555.434.458.667.835 1.158 1.423.247.363.418.528.508.677.148.26.362.547.433.667.604.774.66 1.029 1.118 1.826.227.393.393.77.646 1.177.139.286.229.528.337.677.151.018.241-.059.557-.218" fill="#0499db" transform="matrix(8.5704182 0 0 -8.5704182 927.16447 86.31985)"/><path d="m0 0c.433-.168.59-.233 1.025-.354.256-.105.664-.247.787-.271.632-.288 1.469-.576 2.534-.922 1.135-.408 2.341-.723 3.476-1.133-.193-.435-.314-.821-.532-1.232-.529-1.111-1.134-2.27-1.955-3.163-.085-.099-.085-.13-.192-.241-.315-.434-.629-.917-.966-1.281-1.015-1.229-1.802-2.226-3.107-3.361-.145-.169-.299-.322-.466-.468l-.171-.154c-.193-.145-.162-.207-.478-.389-.226-.166-.271-.181-.453-.271-.122-.133-.106-.439-.167-1.66l-.045-1.253c-.045-1.327 0-1.901.057-3.163.049-.564.022-.588.093-1.289.014-.422.167-1.991.221-2.525.052-.538.068-.674.097-1.141 0 0 .045-.483.096-.936.025-.182-.025-.146-.072-.192-.339-.074-.651-.147-.94-.218-.216-.059-.802-.149-1.06-.164-.878-.106-1.057-.106-2.067-.166l-.303-.009c-.411-.024-.584-.032-1.026-.051-.296-.041-.408 0-.664-.015-1.449-.097-2.49-.136-3.94.045-.179-.015-.285.03-.309.118-.113.109-.279 1.874-.279 3.126-.029.243-.02.981-.045 1.102 0 .272-.015.83-.031 1.236.031 1.028 0 1.133.04 2.239 0 .554 0 1.013.05 1.593-.05.627.097 1.159.022 1.811-.435.434-1.012.845-1.472 1.375-.299.258-.42.363-.604.556-.725.797-1.351 1.546-1.883 2.39-.135.178-.528.721-.709 1.024-.265.507-.324.476-.588.935-.099.185-.227.423-.287.544 0 0-.183.392-.289.617-.168.388-.223.514-.421.937-.137.393-.182.559-.288.859-.215.749-.363 1.168-.388 1.99-.033.109.252.275.599.365.581.193.892.361 1.623.601.773.362 1.487.622 2.362.862.603.227 2.053.665 2.475.815.784.197 1.513.472 2.308.543.145-.217.171-.602.292-.893.218-.797.554-1.618.915-2.293.34-.822.822-1.449 1.476-2.149.239-.218.504-.532.892-.555.434.458.667.835 1.158 1.423.247.363.418.528.508.677.148.26.362.547.433.667.604.774.66 1.029 1.118 1.826.227.393.393.77.646 1.177.139.286.229.528.337.677.151.018.241-.059.557-.218z" fill="none" stroke="#231f20" stroke-width=".329" transform="matrix(8.5704182 0 0 -8.5704182 927.16447 86.31985)"/><path d="m0 0c.7 0 1.21-.094 1.888-.045.096 0 .361-.03.631-.051.423-.04.655-.011 1.088-.085.514-.105 1.6-.12 1.809-.252.144-.364.083-.465.23-.803.044-.227.06-.332.131-.598.194-1.305.604-2.632.652-4.057.092-.582.092-.748.152-1.368.029-.391.061-.754.09-1.099.016-.303.029-.303.029-.559.031-.332.031-.424.043-.765.033-.368.033-.654.033-1.047.073-.99.061-1.349.182-2.338.047-.29.063-1.012.074-1.555.05-.12.047-1.041.099-1.604.022-.433.067-1.172.098-1.867.023-.434.037-.531.045-1.298 0-.241.016-.437.026-.721.004-.289-.01-.35.004-.62v-.544c0-.272.031-.575.015-.801.016-.301.043-.564.016-.874 0-.121.061-.518.012-.638-.579-.217-.752-.268-1.369-.404-.393-.106-.586-.136-.892-.212-.267-.045-.512-.12-.77-.166-.193-.023-.709-.106-1.115-.15-.676-.144-.885-.16-1.585-.256-.556-.121-.846-.136-1.509-.211-.166-.031-.166 0-.197.071-.12.267-.105.532-.168.918-.073.534-.086.824-.133 1.139-.046.34-.076.754-.105 1.175-.146 1.28-.149 1.694-.294 3.022-.068.511-.099.631-.13 1.053-.072.532-.11.758-.184 1.288-.072.096-.194.194-.315.194-.391.073-.718-.768-.934-1.18-.664-1.071-1.117-2.007-1.721-2.997-.072-.024-.135.1-.271.266-.238.283-.301.393-.528.693-.453.815-.664 1.028-1.025 1.706-.246.383-.228.362-.396.619-.119.18-.074.135-.194.337-.193.218-.313.653-.677.58-.24-.168-.217-.41-.217-.676.073-2.414-.041-4.422-.252-6.911l-.037-.381c-1.256-.023-2.584.145-3.84.193-1.4.098-2.776.217-4.152.363.17.168.482.314.676.507.29.29.676.458.893.797-.29 2.294-.434 4.346-.893 6.495l-.117.597c-.169.798-.318 1.498-.438 2.294-.339 1.81-.675 3.071-1.11 4.835-.097.217-.151.507-.247.748-.07.256-.092.333-.182.604-.193.652-.272.822-.465 1.472-.193.508.027.867.121 1.474.072.313.103.495.194.84.096.581.24 1.138.385 1.695l.073.12c1.062.434 2.102.486 3.238.752.604.105 1.567.069 2.291.118.305.002.502-.027.941-.024.36-.019.737.026.965-.049.164-.045.692-.98 1.326-1.991.166-.243.302-.469.484-.74.314-.41.363-.552.702-1.011.157-.227.173-.301.293-.512.509-.6.595-.97.962-1.396.121-.144.291-.241.484-.169.314.048.259.206.38.538.105.317.182.573.332.995.265.846.471 1.292.736 2.137.097.363.265.652.386.99.206.555.418 1.264.532 1.353.081.064.966.047 1.449.072.459-.025.681.015 1.272-.025" fill="#0499db" transform="matrix(8.5704182 0 0 -8.5704182 518.20297 102.67392)"/><path d="m0 0c.7 0 1.21-.094 1.888-.045.096 0 .361-.03.631-.051.423-.04.655-.011 1.088-.085.514-.105 1.6-.12 1.809-.252.144-.364.083-.465.23-.803.044-.227.06-.332.131-.598.194-1.305.604-2.632.652-4.057.092-.582.092-.748.152-1.368.029-.391.061-.754.09-1.099.016-.303.029-.303.029-.559.031-.332.031-.424.043-.765.033-.368.033-.654.033-1.047.073-.99.061-1.349.182-2.338.047-.29.063-1.012.074-1.555.05-.12.047-1.041.099-1.604.022-.433.067-1.172.098-1.867.023-.434.037-.531.045-1.298 0-.241.016-.437.026-.721.004-.289-.01-.35.004-.62v-.544c0-.272.031-.575.015-.801.016-.301.043-.564.016-.874 0-.121.061-.518.012-.638-.579-.217-.752-.268-1.369-.404-.393-.106-.586-.136-.892-.212-.267-.045-.512-.12-.77-.166-.193-.023-.709-.106-1.115-.15-.676-.144-.885-.16-1.585-.256-.556-.121-.846-.136-1.509-.211-.166-.031-.166 0-.197.071-.12.267-.105.532-.168.918-.073.534-.086.824-.133 1.139-.046.34-.076.754-.105 1.175-.146 1.28-.149 1.694-.294 3.022-.068.511-.099.631-.13 1.053-.072.532-.11.758-.184 1.288-.072.096-.194.194-.315.194-.391.073-.718-.768-.934-1.18-.664-1.071-1.117-2.007-1.721-2.997-.072-.024-.135.1-.271.266-.238.283-.301.393-.528.693-.453.815-.664 1.028-1.025 1.706-.246.383-.228.362-.396.619-.119.18-.074.135-.194.337-.193.218-.313.653-.677.58-.24-.168-.217-.41-.217-.676.073-2.414-.041-4.422-.252-6.911l-.037-.381c-1.256-.023-2.584.145-3.84.193-1.4.098-2.776.217-4.152.363.17.168.482.314.676.507.29.29.676.458.893.797-.29 2.294-.434 4.346-.893 6.495l-.117.597c-.169.798-.318 1.498-.438 2.294-.339 1.81-.675 3.071-1.11 4.835-.097.217-.151.507-.247.748-.07.256-.092.333-.182.604-.193.652-.272.822-.465 1.472-.193.508.027.867.121 1.474.072.313.103.495.194.84.096.581.24 1.138.385 1.695l.073.12c1.062.434 2.102.486 3.238.752.604.105 1.567.069 2.291.118.305.002.502-.027.941-.024.36-.019.737.026.965-.049.164-.045.692-.98 1.326-1.991.166-.243.302-.469.484-.74.314-.41.363-.552.702-1.011.157-.227.173-.301.293-.512.509-.6.595-.97.962-1.396.121-.144.291-.241.484-.169.314.048.259.206.38.538.105.317.182.573.332.995.265.846.471 1.292.736 2.137.097.363.265.652.386.99.206.555.418 1.264.532 1.353.081.064.966.047 1.449.072.459-.025.681.015 1.272-.025z" fill="none" stroke="#231f20" stroke-width=".329" transform="matrix(8.5704182 0 0 -8.5704182 518.20297 102.67392)"/><path d="m0 0c1.544-.121 2.704-.178 4.441-.41.218-.048.459-.098.726-.121.144-.048.31-.06.479-.084.518-.061.499-.121.775-.64.218-.386.357-.597.568-1.141.182-.529.301-.785.568-1.442.157-.368.141-.385.29-.822.7-2.027 1.104-3.929 1.708-6.005.241-1.133.452-1.978.648-3.185.315-1.689.588-3.292.781-5.103.147-.797.243-1.812.315-2.609-.532-.602-1.183-.892-1.812-1.327-1.094-.679-1.804-1.026-2.785-1.66-.241-.108-.473-.271-.642-.319-.656-.253-1.048-.451-1.715-.677l-.483-.169c-.145.628-.187.716-.282 1.392-.06.301-.121.693-.2 1.094-.088.369-.137.556-.209 1.064-.075.331-.127.741-.15.814-.058.448-.045.257-.101.61-.11.537-.202 1.066-.265 1.255-.096.074-.117.203-.361.096-.691-.134-.935-.27-1.497-.433-.281-.109-.436-.145-.605-.193-.446-.157-.989-.025-1.039-.604.097-1.665.025-3.429.121-5.119-2.34.073-4.611.29-6.807.749-.363.121-.75.09-1.112.26-.096.023-.265.054-.289.174-.027.534 0 1.135.072 1.763.243 1.98.226 3.962.564 5.895.091.602.136.888.208 1.42.074.629.242 1.304.315 1.909.047.143.096.723.145.82.144.917.268 1.709.51 2.626.105.588.214 1.068.334 1.527.05.265.359 1.521.359 1.521.09.443.211.967.302 1.312.141.448.531 1.737.725 2.581.332 1.086.451 2.094.86 3.012.06.036.169.025.241.048.754.064 1.192.124 1.946.124.348.03 1 .07 1.29.021z" fill="#0499db" transform="matrix(8.5704182 0 0 -8.5704182 295.6146 106.18951)"/><path d="m0 0c1.544-.121 2.704-.178 4.441-.41.218-.048.459-.098.726-.121.144-.048.31-.06.479-.084.518-.061.499-.121.775-.64.218-.386.357-.597.568-1.141.182-.529.301-.785.568-1.442.157-.368.141-.385.29-.822.7-2.027 1.104-3.929 1.708-6.005.241-1.133.452-1.978.648-3.185.315-1.689.588-3.292.781-5.103.147-.797.243-1.812.315-2.609-.532-.602-1.183-.892-1.812-1.327-1.094-.679-1.804-1.026-2.785-1.66-.241-.108-.473-.271-.642-.319-.656-.253-1.048-.451-1.715-.677l-.483-.169c-.145.628-.187.716-.282 1.392-.06.301-.121.693-.2 1.094-.088.369-.137.556-.209 1.064-.075.331-.127.741-.15.814-.058.448-.045.257-.101.61-.11.537-.202 1.066-.265 1.255-.096.074-.117.203-.361.096-.691-.134-.935-.27-1.497-.433-.281-.109-.436-.145-.605-.193-.446-.157-.989-.025-1.039-.604.097-1.665.025-3.429.121-5.119-2.34.073-4.611.29-6.807.749-.363.121-.75.09-1.112.26-.096.023-.265.054-.289.174-.027.534 0 1.135.072 1.763.243 1.98.226 3.962.564 5.895.091.602.136.888.208 1.42.074.629.242 1.304.315 1.909.047.143.096.723.145.82.144.917.268 1.709.51 2.626.105.588.214 1.068.334 1.527.05.265.359 1.521.359 1.521.09.443.211.967.302 1.312.141.448.531 1.737.725 2.581.332 1.086.451 2.094.86 3.012.06.036.169.025.241.048.754.064 1.192.124 1.946.124.348.03 1 .07 1.29.021z" fill="none" stroke="#231f20" stroke-width=".329" transform="matrix(8.5704182 0 0 -8.5704182 295.6146 106.18951)"/><path d="m0 0c0-.433.086-.787.086-1.405.195-1.721.137-2.958.228-4.63.025-.773-.008-1.223.088-1.996l.009-.395c0-.651.081-1.129.121-1.908.097-1.062.268-2.052.337-3.113.025-.387.097-.869.097-1.183.024-.19-.023-.291.121-.339.267-.072.244-.017.462-.017.166.015.312.042.359.042.386-.025.75.072 1.112.096.295.028.415.028.717.043 1.269.135 2.106.125 3.288.151.093-.091.061-1.405.026-2.245 0-.533.022-.533.052-1.227-.03-.362.031-.965.031-1.404 0-1.52.087-2.416.038-3.865.007-.284-.313-.253-.687-.253-.409-.061-.559-.076-.891-.106-.438-.045-.574-.06-1.174-.124-.306-.026-.562-.072-.864-.102-1.448-.146-2.227-.237-3.677-.38-1.134-.171-1.982-.134-3.19-.3-.345-.015-.511-.046-.817-.064-.419-.042-1.822-.132-2.32-.177-.649-.03-.999-.087-1.585-.106-.106-.03-.227 0-.242.106l-.151.677c-.096.582-.121.586-.218 1.191-.069.289-.129.41-.083.486.265.023.593.238.663.456.098.723.098 1.641.145 2.366-.024.408 0 .568-.024.905-.106 1.963-.023 3.707-.218 5.759-.249 2.435-.274 3.804-.505 5.122-.031.438-.121.889-.121 1.082 0 .17-.05.339-.05.461-.101.525-.101.63-.192 1.109-.048.363-.144.749-.194 1.135-.096.386-.121.797-.314 1.111-.071 0-.121.024-.168.071v-.023c-.147.482-.193 1.014-.243 1.52.027.28 2.465.702 3.67 1.04 1.089.216 2.048.476 3.391.581.752.077.912.065 1.538.137l.481.029c.26 0 .747.073.868-.314" fill="#0499db" transform="matrix(8.5704182 0 0 -8.5704182 745.620729 112.86847)"/><path d="m0 0c0-.433.086-.787.086-1.405.195-1.721.137-2.958.228-4.63.025-.773-.008-1.223.088-1.996l.009-.395c0-.651.081-1.129.121-1.908.097-1.062.268-2.052.337-3.113.025-.387.097-.869.097-1.183.024-.19-.023-.291.121-.339.267-.072.244-.017.462-.017.166.015.312.042.359.042.386-.025.75.072 1.112.096.295.028.415.028.717.043 1.269.135 2.106.125 3.288.151.093-.091.061-1.405.026-2.245 0-.533.022-.533.052-1.227-.03-.362.031-.965.031-1.404 0-1.52.087-2.416.038-3.865.007-.284-.313-.253-.687-.253-.409-.061-.559-.076-.891-.106-.438-.045-.574-.06-1.174-.124-.306-.026-.562-.072-.864-.102-1.448-.146-2.227-.237-3.677-.38-1.134-.171-1.982-.134-3.19-.3-.345-.015-.511-.046-.817-.064-.419-.042-1.822-.132-2.32-.177-.649-.03-.999-.087-1.585-.106-.106-.03-.227 0-.242.106l-.151.677c-.096.582-.121.586-.218 1.191-.069.289-.129.41-.083.486.265.023.593.238.663.456.098.723.098 1.641.145 2.366-.024.408 0 .568-.024.905-.106 1.963-.023 3.707-.218 5.759-.249 2.435-.274 3.804-.505 5.122-.031.438-.121.889-.121 1.082 0 .17-.05.339-.05.461-.101.525-.101.63-.192 1.109-.048.363-.144.749-.194 1.135-.096.386-.121.797-.314 1.111-.071 0-.121.024-.168.071v-.023c-.147.482-.193 1.014-.243 1.52.027.28 2.465.702 3.67 1.04 1.089.216 2.048.476 3.391.581.752.077.912.065 1.538.137l.481.029c.26 0 .747.073.868-.314z" fill="none" stroke="#231f20" stroke-width=".329" transform="matrix(8.5704182 0 0 -8.5704182 745.620729 112.86847)"/><path d="m0 0 .397-.054c.676-.073 1.333-.23 2.034-.4.048-.433.177-.718.224-1.176.076-.437.137-.709.214-1.238.09-.845.118-.845.224-1.825.06-.575.103-.819.128-1.229.169-1.546.236-2.68.402-4.25.014-.513.114-1.067.121-1.704.045-.756.029-1.17.029-1.796.016-.407.045-.722.045-1.013.045-.316.016-.497.032-.874-.025-.796.013-1.055-.047-1.72 0-.025-.03-.4-.03-.422l-.029-.528c0-.291-.04-.442-.062-.66l-.18-.08c-.605-.122-1.224-.288-1.524-.333-.53-.12-.905-.116-1.486-.214-.772-.073-1.52-.17-2.316-.12-.676-.024-1.354.097-2.005.072-.072 0-.584.018-.849.067 0 0-.271.029-.482.075-.287.015-.287.015-.505.075-.431.09-.764.061-.772.243-.047 1.617-.079 2.922-.126 4.541l-.016.574c-.028.528-.028.498-.045.889-.049 1.039-.105 1.345-.128 2.59-.054.701-.069 1.108-.118 1.812-.012.503-.041.876-.041.97-.168 2.295-.202 3.593-.444 5.814-.023.435-.144.846-.144 1.279v.092l.361.075c1.464.377 1.872.407 3.698.529l.769.044c1.086-.048 1.706-.008 2.671-.105" fill="#0499db" transform="matrix(8.5704182 0 0 -8.5704182 640.68281 137.58384)"/><path d="m0 0 .397-.054c.676-.073 1.333-.23 2.034-.4.048-.433.177-.718.224-1.176.076-.437.137-.709.214-1.238.09-.845.118-.845.224-1.825.06-.575.103-.819.128-1.229.169-1.546.236-2.68.402-4.25.014-.513.114-1.067.121-1.704.045-.756.029-1.17.029-1.796.016-.407.045-.722.045-1.013.045-.316.016-.497.032-.874-.025-.796.013-1.055-.047-1.72 0-.025-.03-.4-.03-.422l-.029-.528c0-.291-.04-.442-.062-.66l-.18-.08c-.605-.122-1.224-.288-1.524-.333-.53-.12-.905-.116-1.486-.214-.772-.073-1.52-.17-2.316-.12-.676-.024-1.354.097-2.005.072-.072 0-.584.018-.849.067 0 0-.271.029-.482.075-.287.015-.287.015-.505.075-.431.09-.764.061-.772.243-.047 1.617-.079 2.922-.126 4.541l-.016.574c-.028.528-.028.498-.045.889-.049 1.039-.105 1.345-.128 2.59-.054.701-.069 1.108-.118 1.812-.012.503-.041.876-.041.97-.168 2.295-.202 3.593-.444 5.814-.023.435-.144.846-.144 1.279v.092l.361.075c1.464.377 1.872.407 3.698.529l.769.044c1.086-.048 1.706-.008 2.671-.105z" fill="none" stroke="#231f20" stroke-width=".329" transform="matrix(8.5704182 0 0 -8.5704182 640.68281 137.58384)"/><path d="m0 0c.192-.624.516-1.349.313-1.521-.121-.149-.354-.181-.824-.331-.362-.1-.403-.04-.429.09.046.697.143 1.255.24 1.834.049.33.055.516.309.552.203.041.294-.431.391-.624" fill="#231f20" transform="matrix(8.5704182 0 0 -8.5704182 304.71296 207.16789)"/><path d="m0 0c-.476.301-.999.55-1.523.799 0 0-.207.11-.501.224-.6.277-1.224.476-1.798.752-1.401.575-2.949.898-4.424 1.297-.55.126-1.246.275-1.625.326-.275-.074-.216-.271-.351-.599-.173-.4-.426-.095-.698.024-.182.148-.199.175-.35.2-.316.025-.473-.599-.774-1.075-.214-.508-.276-.586-.55-1.149-.227-.35-.399-.747-.599-1.073-.052-.125-.564-1.081-.782-1.472-.126-.25-.235-.406-.343-.402-.276.172-.5.375-.777.599-.123.099-.256.287-.458.489-.219.22-.313.344-.545.611-.377.375-.42.449-.819.848-.354.431-.482.557-.761.963-.171.218-.202.281-.312.469-.227.283-.142.202-.281.422-.125.25-.197.297-.296.57-.125.2-.175.426-.301.624-.123.076-.246.007-.433-.055-1.25-.249-2.39-.593-3.564-.867-.574-.195-.78-.24-1.326-.413-1.015-.252-1.648-.539-2.524-.886-.271-.037-.624-.023-.848.026-.725.05-1.501.079-2.175.072-.996-.024-1.575-.193-2.324-.242-1.094-.142-1.586-.02-1.514-.299-.016-.218.031-.28.015-.513-.485-.08-.626-.064-1.026-.145-.15-.051-.15-.224-.175-.325.151-1.85.373-3.654.126-5.724-.096-.726-.224-1.672-1.001-2.123-.348-.024-.72.193-.924.325-.849.75-1.436 1.91-1.686 3.087-.275 1.724-.589 3.411-.238 5.261.024.323.2.572.25.849-.05.224-.107.34-.387.356-.135.048-.172 0-.313-.007-.899-.1-1.824-.199-2.798-.301-.701-.048-.671-.062-1.371-.161-.265-.094-.719-.181-.954-.233-.575-.175-.898-.306-1.5-.479-.514-.131-.774-.3-1.223-.349-.135-.064-.076.432-.277.608-.098.025-.249.157-.576.28-.4.201-.71.373-1.109.548-.891.407-1.152.478-1.391.548-.418.167-.436.139-.77.265-.792.233-.838.186-1.475.348-.575.051-.847.212-1.597.276-.484.078-.867.071-1.077.099h-1.274l-.225-.048c-.219-.004-.204-.02-.376-.027-1.75-.126-3.223-.599-4.873-1.023-.375-.126-.468-.173-.735-.249-.761-.27-.801-.234-1.326-.532-.267-.126-.416-.225-.516-.251-.345-.171-.594-.282-.936-.467-.267-.14-.324-.183-.548-.313-.075-.026-.282-.173-.537-.311-.229-.157-.415-.268-.634-.439-.35-.221-.406-.313-.625-.468-.312-.236-.465-.369-.615-.519-.229-.216-.635-.605-.759-.731-.189-.156-.344-.348-.469-.454-.216-.272-.187-.217-.397-.416-.337-.145-.619-.302-.875-.5-.624-.498-1.174-1.023-1.699-1.674-1.074-1.549-1.525-3.373-1.849-5.197-.084-.913-.163-1.257-.1-2.192.031-.69.028-.899.108-1.424l.142-.873c.326-2.069.953-3.276 1.952-4.825.054-.081.331-.444.647-.932.415-.508 1.025-1.151 1.025-1.151.249-.173.327-.323.64-.544.249-.217.51-.453.709-.604 0 0 1.18-.987 1.851-1.346.375-.281.969-.611 1.407-.828.65-.351 1.207-.51 1.906-.735.421-.105.547-.188.921-.311.233-.095.262-.095.656-.189.434-.155.765-.233 1.031-.314.574-.101 1.073-.277 1.674-.351.341-.069.359-.056.699-.116.285-.034.595-.092.907-.123 1.455-.115 1.781-.142 3.374.013.359.031.793.076.793.076.269.05.3.05.612.096.375.033.375.033.812.126.297.047.36.063.775.178 0 0 .75.199 1.149.301.935.271 1.725.424 2.501.774.636.263.683.294 1.149.55.324.175.221.478.224.823-.018.31.009.445-.064.669.15.201.59.486.764.609.031 1.407.05 2.446 0 3.697.05.099.063.161.176.073.524-.847 1.248-1.423 2.073-1.997.344-.226.344-.211.699-.451.207-.148.238-.182.519-.337 1.876-.823 3.577-1.499 5.829-1.262.357.028.372.028.751.1.548.076.658.156 1.183.256.265.078.463.109.719.235.337.123.392.132.592.234.626.249.77.361 1.219.686.076.076.251.189.46.413.353.337.258.494.696.619 1.076.6 2.227 1.179 3.001 2.079 1.25 1.124 2.276 2.575 3.026 4.225.424 1.174 1.023 2.35 1.447 3.499.351-.351.726-.774 1.051-1.149.332-.299.384-.379.66-.579.375-.344 1.03-.64 1.039-1.098 0-1.423 0-2.772-.024-4.121 0-.593-.028-.669.031-1.746.015-.33.015-.548.045-.954.074-.95.081-1.109.143-1.688.016-.297.04-.555.092-1.061 0-.275.079-.574.079-.797.031-.25.047-.273.063-.515.031-.343.047-.437.121-.911.024-.052.05-.197.143-.213.151-.05.234-.016.582-.038.341.007.623 0 .623 0 1.217.132 2.25.15 3.402.275.61.059.657.059 1.198.124.505.014 1.191.139 1.881.2.301.051.795.063 1.293.126.9.074 1.396.188 2.22.311l.61.079c.25.076.202.047.519.135.338-.009.137.567.125 1.075.324.123.934.116 1.058.32.125.142.063.375.016.953 0 0-.328 2.28-.328 2.406-.249 1.969-.296 2.327-.398 3.443-.074 1.349-.377 2.696-.477 4.07.724.624 1.357 1.379 2.031 2.031.224.24.422.422.624.718.204.217.516.577.516.577.75.826.999 1.298 1.755 2.273.292.477.626.852.875 1.3.198.333.249.402.415.707.078.15.171.265.282.47.202.358.327.576.579 1.023.147.4.347.676.498 1.075.264.727.484 1.351.55 1.773 0 .15-.099.252-.225.326m-50.38-10.621c-.325.024-.775.024-1.151.076-.949.049-1.848-.076-2.772 0-1.001 0-2.301-.076-3.324-.15-.269-.016-.097-.438-.126-.802-.424-.074-.799-.074-1.225-.074l-.137-.016c0-1.398.164-2.808.188-4.157-.475.299-.925.599-1.275 1.051-.449.599-.974 1.374-.65 2.148.201.599.55 1.324 1 1.748 1.276 1.352 3.123 1.85 4.948 1.951.382.056 1.786.025 1.786.025.417.008.596-.032.938 0 .328-.032 1.41-.07 1.735-.095.324-.074.889.045 1.04-.33.05-.476.05-1.001.15-1.425-.349 0-.751 0-1.125.05" fill="#231f20" transform="matrix(8.5704182 0 0 -8.5704182 825.934941 377.68068)"/><path d="m0 0c.424-.651 1.059-1.267 1.56-1.841.143-.175.206-.238.392-.425.406-.468.633-.652.984-.953.172-.155.233-.218.446-.371.35-.301.523-.363.974-.676.142-.093.328-.28.526.075.401.35.524.801.875 1.176.15.298.276.498.425.799.251.526.598.974.825 1.45.38.813.678 1.373 1.023 2.199.09.221.126.275.2.424.75-.125 1.525-.251 2.249-.5.517-.109.64-.157 1.109-.264.532-.204.923-.268 1.616-.51.674-.249 1.322-.491 2.025-.826.848-.274 1.524-.649 2.274-1.048.301-.126.193-.318.099-.6-.139-.342-.187-.594-.36-.922-.199-.525-.311-.796-.639-1.427-.094-.245-.225-.441-.375-.712-.312-.485-.391-.687-.734-1.155-.328-.564-.492-.785-.765-1.236-.277-.325-.36-.469-.725-.922-.2-.373-.275-.433-.525-.732-.156-.22-.346-.391-.422-.516-.42-.548-.384-.499-.858-1.046-.188-.188-.39-.438-.734-.812-.251-.252-.375-.391-.705-.703-.249-.301-.455-.538-.806-.813-.123-.175-.599-.301-.372-.65.298-1.725.474-3.322.648-5.022.049-.451.079-.747.155-1.374.048-.39.048-.529.126-1.263.063-.469.094-.588.119-.939.038-.217.054-.311.085-.576.079-.687.155-.97.093-1.125.035-.188-.953-.311-1.545-.437-.922-.117-1.017-.142-1.829-.265l-.483-.079c-.75-.078-.793-.08-1.391-.156-.344-.045-.578-.08-.854-.109-.922-.076-1.724-.224-2.648-.224-.606-.074-.669-.056-1.399-.125-.41-.026-1.099-.151-1.45-.078-.101.676-.13 1.146-.208 1.864-.031.406-.031.624-.065.911-.028.301-.045.651-.061 1.089-.062.592-.062 1.154-.062 1.528-.012.838-.016.517-.016 1.282-.074 1.65.038 3.024.013 4.649l-.077.123c-.798.651-1.597 1.075-2.197 1.8-.379.348-.55.474-.9.851-.213.247-.26.339-.448.624-.311.388-.342.498-.578.775-.024.224 0 .753.016 1.283l.016.75-.063 1.578c-.171 1.969-.344 3.262-.617 4.985l-.227.949c-.422.225-.611.232-1.062.284-.123 0-.386.067-.512.067.326.199.598.271.997.399.647.17 1.017.321 1.641.469.095.068.651.194 1.16.332.377.099.636.169 1.151.323.1 0 .423.095.657.173.448.075 1.014.313 1.018.178.375-.648.664-1.334 1.215-1.957" fill="#0499db" transform="matrix(8.5704182 0 0 -8.5704182 672.29477 368.54118)"/><path d="m0 0c.424-.651 1.059-1.267 1.56-1.841.143-.175.206-.238.392-.425.406-.468.633-.652.984-.953.172-.155.233-.218.446-.371.35-.301.523-.363.974-.676.142-.093.328-.28.526.075.401.35.524.801.875 1.176.15.298.276.498.425.799.251.526.598.974.825 1.45.38.813.678 1.373 1.023 2.199.09.221.126.275.2.424.75-.125 1.525-.251 2.249-.5.517-.109.64-.157 1.109-.264.532-.204.923-.268 1.616-.51.674-.249 1.322-.491 2.025-.826.848-.274 1.524-.649 2.274-1.048.301-.126.193-.318.099-.6-.139-.342-.187-.594-.36-.922-.199-.525-.311-.796-.639-1.427-.094-.245-.225-.441-.375-.712-.312-.485-.391-.687-.734-1.155-.328-.564-.492-.785-.765-1.236-.277-.325-.36-.469-.725-.922-.2-.373-.275-.433-.525-.732-.156-.22-.346-.391-.422-.516-.42-.548-.384-.499-.858-1.046-.188-.188-.39-.438-.734-.812-.251-.252-.375-.391-.705-.703-.249-.301-.455-.538-.806-.813-.123-.175-.599-.301-.372-.65.298-1.725.474-3.322.648-5.022.049-.451.079-.747.155-1.374.048-.39.048-.529.126-1.263.063-.469.094-.588.119-.939.038-.217.054-.311.085-.576.079-.687.155-.97.093-1.125.035-.188-.953-.311-1.545-.437-.922-.117-1.017-.142-1.829-.265l-.483-.079c-.75-.078-.793-.08-1.391-.156-.344-.045-.578-.08-.854-.109-.922-.076-1.724-.224-2.648-.224-.606-.074-.669-.056-1.399-.125-.41-.026-1.099-.151-1.45-.078-.101.676-.13 1.146-.208 1.864-.031.406-.031.624-.065.911-.028.301-.045.651-.061 1.089-.062.592-.062 1.154-.062 1.528-.012.838-.016.517-.016 1.282-.074 1.65.038 3.024.013 4.649l-.077.123c-.798.651-1.597 1.075-2.197 1.8-.379.348-.55.474-.9.851-.213.247-.26.339-.448.624-.311.388-.342.498-.578.775-.024.224 0 .753.016 1.283l.016.75-.063 1.578c-.171 1.969-.344 3.262-.617 4.985l-.227.949c-.422.225-.611.232-1.062.284-.123 0-.386.067-.512.067.326.199.598.271.997.399.647.17 1.017.321 1.641.469.095.068.651.194 1.16.332.377.099.636.169 1.151.323.1 0 .423.095.657.173.448.075 1.014.313 1.018.178.375-.648.664-1.334 1.215-1.957z" fill="none" stroke="#231f20" stroke-width=".329" transform="matrix(8.5704182 0 0 -8.5704182 672.29477 368.54118)"/><path d="m0 0c.906.031 1.219-.047 2.156-.142.5-.123.522-.142 1.046-.217.329-.063.374-.078.679-.182.118-.054.227-.099.462-.161.474-.176.663-.164 1.112-.389.249-.05.449-.2.725-.249.674-.249 1.348-.599 1.998-.974.176-.526.225-1.124.325-1.724.051-.801.135-1.194.166-2.256.031-.595.084-.806.062-1.436.006-.481.017-.379.017-.706-.017-.387 0-.421-.048-.919l-.078-.611c-.048-.404-.048-.375-.119-.769-.074-.078-.067-.088-.225-.052-.264.071-.468.087-.702.166-.95.225-1.2.309-2.125.359-.327.032-.483.078-.821.101-.949.123-2.174.074-3.199.074-1.087-.034-1.16-.047-2.007-.223-.346-.06-.532-.154-.817-.226-.73-.256-1.247-.429-1.724-.725-.351-.252-.732-.508-1.006-.781-.327-.265-.548-.501-.793-.844-.749-.974-1.097-2.155-.925-3.248l.05-.226c.25-.899.824-1.698 1.624-2.247.324-.246.5-.38.918-.604.65-.274 1.203-.454 2.081-.548 1.059 0 1.745.016 2.419.828.208.279.391.517.455.873-.003.158-.1.249-.225.249-1.122-.026-1.872-.074-2.924-.1-.125 0-.151.15-.151.251 0 1.324-.199 2.449-.123 3.723.249.075.536.03.812.081.182-.004.578.047.811.047.906.016.954.016 1.781.016.674.05.812 0 1.469.032.699-.052 1.008-.029 1.733-.079.39-.016.718-.062 1.215-.071.276 0 .5 0 .775-.05.682-.02 1.587-.005 1.6-.251.274-1.199.199-2.6.325-3.899.15-1.674.224-3.448.3-5.147.024-.774 0-1.426.024-2.249-.524-.451-.958-.658-1.673-1.026-.504-.287-.676-.35-1.15-.526-.526-.223-.76-.322-1.448-.511-.484-.157-.545-.186-.803-.238-.133-.043-.346-.096-.446-.121-1.448-.326-2.858-.516-4.388-.532-.401-.022-.547 0-1.087.005 0 0-.928.105-1.147.121-.276.024-.343.047-.703.103 0 0-1.234.288-1.499.366 0 0-.65.159-.676.159-.231.059-1.074.271-1.261.342-.312.076-.891.311-.891.311s-.734.313-1.171.546c-.849.4-1.525.749-2.224 1.376-1.165.734-1.806 1.607-2.477 2.357-1.4 1.825-2.472 3.991-2.821 6.314-.225 1.185-.301 2.298-.287 3.122.031.357 0 .561.046.858.032.374.044.394.111.796.042.393.093.564.179.922.101.375.276.849.3.925.081.292.128.355.318.809.216.484.216.5.42.828.484.686.5.671 1.012 1.262.488.612 1 1.148 1.499 1.599.401.349.826.8 1.201 1.15.399.3.646.487 1.099.774.299.225.752.456 1.077.681.575.275 1.078.657 1.765.921l.671.281c.532.205 1.51.516 1.76.591 1.075.3 2.124.525 3.199.75.305.033.367.048.742.08.252.025.479.079.703.079.313 0 .698.055.922.031" fill="#0499db" transform="matrix(8.5704182 0 0 -8.5704182 349.54824 353.56009)"/><path d="m0 0c.906.031 1.219-.047 2.156-.142.5-.123.522-.142 1.046-.217.329-.063.374-.078.679-.182.118-.054.227-.099.462-.161.474-.176.663-.164 1.112-.389.249-.05.449-.2.725-.249.674-.249 1.348-.599 1.998-.974.176-.526.225-1.124.325-1.724.051-.801.135-1.194.166-2.256.031-.595.084-.806.062-1.436.006-.481.017-.379.017-.706-.017-.387 0-.421-.048-.919l-.078-.611c-.048-.404-.048-.375-.119-.769-.074-.078-.067-.088-.225-.052-.264.071-.468.087-.702.166-.95.225-1.2.309-2.125.359-.327.032-.483.078-.821.101-.949.123-2.174.074-3.199.074-1.087-.034-1.16-.047-2.007-.223-.346-.06-.532-.154-.817-.226-.73-.256-1.247-.429-1.724-.725-.351-.252-.732-.508-1.006-.781-.327-.265-.548-.501-.793-.844-.749-.974-1.097-2.155-.925-3.248l.05-.226c.25-.899.824-1.698 1.624-2.247.324-.246.5-.38.918-.604.65-.274 1.203-.454 2.081-.548 1.059 0 1.745.016 2.419.828.208.279.391.517.455.873-.003.158-.1.249-.225.249-1.122-.026-1.872-.074-2.924-.1-.125 0-.151.15-.151.251 0 1.324-.199 2.449-.123 3.723.249.075.536.03.812.081.182-.004.578.047.811.047.906.016.954.016 1.781.016.674.05.812 0 1.469.032.699-.052 1.008-.029 1.733-.079.39-.016.718-.062 1.215-.071.276 0 .5 0 .775-.05.682-.02 1.587-.005 1.6-.251.274-1.199.199-2.6.325-3.899.15-1.674.224-3.448.3-5.147.024-.774 0-1.426.024-2.249-.524-.451-.958-.658-1.673-1.026-.504-.287-.676-.35-1.15-.526-.526-.223-.76-.322-1.448-.511-.484-.157-.545-.186-.803-.238-.133-.043-.346-.096-.446-.121-1.448-.326-2.858-.516-4.388-.532-.401-.022-.547 0-1.087.005 0 0-.928.105-1.147.121-.276.024-.343.047-.703.103 0 0-1.234.288-1.499.366 0 0-.65.159-.676.159-.231.059-1.074.271-1.261.342-.312.076-.891.311-.891.311s-.734.313-1.171.546c-.849.4-1.525.749-2.224 1.376-1.165.734-1.806 1.607-2.477 2.357-1.4 1.825-2.472 3.991-2.821 6.314-.225 1.185-.301 2.298-.287 3.122.031.357 0 .561.046.858.032.374.044.394.111.796.042.393.093.564.179.922.101.375.276.849.3.925.081.292.128.355.318.809.216.484.216.5.42.828.484.686.5.671 1.012 1.262.488.612 1 1.148 1.499 1.599.401.349.826.8 1.201 1.15.399.3.646.487 1.099.774.299.225.752.456 1.077.681.575.275 1.078.657 1.765.921l.671.281c.532.205 1.51.516 1.76.591 1.075.3 2.124.525 3.199.75.305.033.367.048.742.08.252.025.479.079.703.079.313 0 .698.055.922.031z" fill="none" stroke="#231f20" stroke-width=".329" transform="matrix(8.5704182 0 0 -8.5704182 349.54824 353.56009)"/><path d="m0 0c.025-1.601-.702-2.64-1.093-3.718-.157-.311-.251-.578-.406-.89-.126-.348-.126-.277-.251-.624-.142-.241-.218-.375-.359-.656-.424-.9-.792-1.488-1.494-2.162-.38-.43-.567-.588-.949-.951-.213-.261-.228-.276-.473-.498-.222-.155-.238-.2-.474-.342-.375-.325-.678-.448-1.077-.749-.216-.112-.391-.218-.609-.312-.199-.126-.359-.158-.686-.312-.802-.375-1.563-.752-2.438-.828-.482-.086-.296-.048-.86-.11l-.329-.023c-.825-.024-1.6 0-2.375.101-.715.095-1.184.202-1.841.423-.799.3-1.432.603-2.232 1.027-.266.128-.325.15-.475.225-.368.168-.399.247-.727.464-.694.42-.898.709-1.397 1.161-.5.498-.976.974-1.324 1.598-.263.476-.45 1.026-.525 1.65-.126 1.149-.126 1.972-.3 3.075 0 .202-.064.42-.101.55-.2.298-.55.273-.824.347-.225.7-.275 1.426-.351 2.2.026.2.151.12.326.099.262-.074.4-.099.599-.124.351.375.375.9.45 1.399.25 2.3-.024 4.7-.25 6.999.526.15.994.368 1.674.525.2.099.451.123.651.225.7.226.792.257 1.871.43.219.047.687.094.687.094.375.05.54.05.89.1.359.024.469.055.975.048.4.054.7.077 1.025.077l.093-.023c-.45-1.573-.296-3.483-.068-5.176.208-1.227.448-2.473 1.25-3.423.256-.366.624-.651 1.048-.949.207-.103.238-.103.501-.176.19-.038.237-.008.534-.038.823.126 1.613.313 2.139 1.114.449.848.532 1.636.626 2.698.05 1.699-.076 3.499-.177 5.122l.177.047c1.248.101 1.592.328 3.232.328l.97.031c.748 0 .999-.031 1.67-.062.297-.03.422-.061.676-.092.523-.076 1.097-.076 1.573-.301.375-1.149.425-2.35.649-3.574l.051-.675c.05-.55.128-.761.16-1.574.078-1.017.002-1.387.078-2.312 0-.375-.065-1.037-.088-1.212z" fill="#0499db" transform="matrix(8.5704182 0 0 -8.5704182 621.42508 456.89877)"/><path d="m0 0c.025-1.601-.702-2.64-1.093-3.718-.157-.311-.251-.578-.406-.89-.126-.348-.126-.277-.251-.624-.142-.241-.218-.375-.359-.656-.424-.9-.792-1.488-1.494-2.162-.38-.43-.567-.588-.949-.951-.213-.261-.228-.276-.473-.498-.222-.155-.238-.2-.474-.342-.375-.325-.678-.448-1.077-.749-.216-.112-.391-.218-.609-.312-.199-.126-.359-.158-.686-.312-.802-.375-1.563-.752-2.438-.828-.482-.086-.296-.048-.86-.11l-.329-.023c-.825-.024-1.6 0-2.375.101-.715.095-1.184.202-1.841.423-.799.3-1.432.603-2.232 1.027-.266.128-.325.15-.475.225-.368.168-.399.247-.727.464-.694.42-.898.709-1.397 1.161-.5.498-.976.974-1.324 1.598-.263.476-.45 1.026-.525 1.65-.126 1.149-.126 1.972-.3 3.075 0 .202-.064.42-.101.55-.2.298-.55.273-.824.347-.225.7-.275 1.426-.351 2.2.026.2.151.12.326.099.262-.074.4-.099.599-.124.351.375.375.9.45 1.399.25 2.3-.024 4.7-.25 6.999.526.15.994.368 1.674.525.2.099.451.123.651.225.7.226.792.257 1.871.43.219.047.687.094.687.094.375.05.54.05.89.1.359.024.469.055.975.048.4.054.7.077 1.025.077l.093-.023c-.45-1.573-.296-3.483-.068-5.176.208-1.227.448-2.473 1.25-3.423.256-.366.624-.651 1.048-.949.207-.103.238-.103.501-.176.19-.038.237-.008.534-.038.823.126 1.613.313 2.139 1.114.449.848.532 1.636.626 2.698.05 1.699-.076 3.499-.177 5.122l.177.047c1.248.101 1.592.328 3.232.328l.97.031c.748 0 .999-.031 1.67-.062.297-.03.422-.061.676-.092.523-.076 1.097-.076 1.573-.301.375-1.149.425-2.35.649-3.574l.051-.675c.05-.55.128-.761.16-1.574.078-1.017.002-1.387.078-2.312 0-.375-.065-1.037-.088-1.212z" fill="none" stroke="#231f20" stroke-width=".329" transform="matrix(8.5704182 0 0 -8.5704182 621.42508 456.89877)"/><path d="m0 0 .007.251c-.097 1.135.09 1.947.451 2.96.267.749 1.102.811 1.667 1.111.627.184 1.158.386 1.834.314.171.218.314.507.579.652-.24.41-.458.869-.7 1.255-.193.459-.458.942-.651 1.401-.411.747-.893 1.856-1.28 2.628-.316.227-.363.393-.211.588.194.17.38.261.622.164.241-.168.04-.33.088-.511.168-.337.442-.937.588-1.3.071-.242.436-.918.507-1.062.193-.362.894-1.811 1.158-2.294.097-.218.147-.459.29-.652.532.17 1.28.241 1.836 0 .161.268.541.977.747 1.377.773 1.472 1.402 2.97 2.151 4.466l-.025.194c.021.133.238.328.382.328.152-.015.439-.16.415-.449-.047-.218-.193-.29-.386-.361-.483-.944-.943-1.789-1.353-2.753-.472-.933-.622-1.465-1.165-2.352-.097-.193-.164-.377-.308-.643.218-.169.483-.363.604-.627.675-.049 1.135-.195 1.715-.411.603-.265.796-.918.964-1.522.147-1.037.169-2.244-.024-3.282-.159-.683-.529-1.233-1.111-1.449-.119-.339-.312-.653-.626-.845-.99-.556-2.343-.41-3.549-.435-.893 0-1.69.194-2.536.315-.472.131-.59.176-.97.342-.289.146-.527.266-.768.484-.193.144-.314.501-.506.693z" fill="#231f20" transform="matrix(8.5704182 0 0 -8.5704182 567.0475 102.23086)"/><path d="m0 0 .072-.07c-.893.096-1.811.07-2.727.07.314.361.615.444 1.158.507.532 0 1.158-.049 1.497-.507" fill="#f9a91f" transform="matrix(8.5704182 0 0 -8.5704182 629.33387 61.46221)"/><path d="m0 0c.339-.556.436-1.231.436-2.003.024-.894.049-1.811-.362-2.56-1.376-1.256-3.526-1.16-5.288-1.039-.918.146-1.739.338-2.487.701-.7.433-.579 1.062-.651 1.811-.004.646-.02.902.072 1.625.105.665.193 1.176.603 1.635.266.218.627.337.99.41 1.713.193 3.646.314 5.529-.024.411-.097.821-.266 1.158-.556" fill="#f9a91f" transform="matrix(8.5704182 0 0 -8.5704182 650.22423 72.01671)"/><path d="m0 0c.633-.361.574-1.131.574-1.572.023-.653-.024-1.328-.145-1.981-.113-.672-.097-1.155-.7-1.396-.266-.146-.723-.197-.991-.22-1.376-.121-2.752.023-3.863.65-.61.647-.332 1.139-.386 1.909.025.917.025 1.872.773 2.474.453.257 1.131.332 2.128.393.996-.015 2.083-.015 2.61-.257" fill="#231f20" transform="matrix(8.5704182 0 0 -8.5704182 632.28038 71.37222)"/><path d="m0 0c.498-.468.365-1.552.316-2.324-.024-.072.009-.534-.06-.679-.023-.313-.112-.396-.135-.71l-.076-.181c-.05-.072 0-.06-.119-.226-.076-.123-.126-.118-.197-.166-.122-.048-.324-.097-.467-.121l-.531-.045c-1.254-.097-1.645-.121-2.805.332-.485.15-.788.307-.875.679-.05.387-.05.695-.05 1.056.079 1.026-.047 2.004.968 2.319.215.096.408.096.626.144.99.217 2.09.206 3.104.013z" fill="#d1e2f5" transform="matrix(8.5704182 0 0 -8.5704182 630.99139 74.34355)"/><path d="m0 0c0-.273-.079-.434-.18-.498-.146-.17-.433-.088-.601-.064-.218.047-.275.214-.315.409-.072.217.075.411.194.532.087.072.477.187.646.043.193-.145.184-.205.256-.422" fill="#231f20" transform="matrix(8.5704182 0 0 -8.5704182 649.47949 80.02573)"/><path d="m0 0c0-.12-.05-.217-.193-.193-.171 0-.171.025-.218.12-.059.168.069.343.213.319.096-.024.211-.076.198-.246" fill="#0499db" transform="matrix(8.5704182 0 0 -8.5704182 646.51666 80.71226)"/><path d="m0 0c.144-.169.19-.362.168-.58-.049-.168-.182-.341-.35-.366-.364-.022-.62.061-.761.366-.144.362.141.691.386.726.194.023.411-.026.557-.146" fill="#231f20" transform="matrix(8.5704182 0 0 -8.5704182 648.59242 91.46724)"/><path d="m0 0c-.022-.097-.083-.224-.179-.248-.146-.025-.254.055-.303.175-.023.145.049.265.17.291.144.048.284-.073.312-.218" fill="#0499db" transform="matrix(8.5704182 0 0 -8.5704182 647.52969 94.98283)"/></svg>